<?xml version="1.0" standalone="no"?>
<!DOCTYPE svg PUBLIC "-//W3C//DTD SVG 20010904//EN"
 "http://www.w3.org/TR/2001/REC-SVG-20010904/DTD/svg10.dtd">
<svg version="1.0" xmlns="http://www.w3.org/2000/svg"
 width="192.000000pt" height="69.000000pt" viewBox="0 0 192.000000 69.000000"
 preserveAspectRatio="xMidYMid meet">

<g transform="translate(0.000000,69.000000) scale(0.100000,-0.100000)"
fill="#1b5bae" stroke="none">
<path d="M952 650 c-78 -32 -34 -153 48 -135 62 14 71 108 14 134 -29 13 -31
13 -62 1z"/>
<path d="M1150 550 l0 -90 -27 0 c-27 0 -28 -1 -25 -49 3 -42 7 -50 25 -53 20
-3 22 -10 27 -103 6 -110 13 -128 64 -173 41 -35 91 -52 159 -52 l47 0 0 55 0
55 -55 0 c-46 0 -60 4 -80 25 -23 22 -25 32 -25 110 l0 85 80 0 80 0 0 50 0
50 -80 0 -80 0 0 90 0 90 -55 0 -55 0 0 -90z"/>
<path d="M20 320 l0 -290 55 0 55 0 0 115 0 115 85 0 85 0 0 60 0 60 -85 0
-85 0 0 60 0 60 145 0 145 0 0 55 0 55 -200 0 -200 0 0 -290z"/>
<path d="M540 467 c-48 -15 -113 -83 -128 -133 -41 -138 19 -263 143 -300 68
-19 129 -8 184 33 35 27 35 27 62 -19 5 -10 16 -18 24 -18 13 0 15 33 15 215
0 228 -2 236 -45 195 l-22 -21 -57 31 c-62 32 -112 37 -176 17z m136 -116 c61
-37 69 -129 17 -183 -73 -77 -183 -21 -183 93 0 33 6 47 34 75 40 40 83 45
132 15z"/>
<path d="M1606 465 c-49 -17 -93 -59 -117 -110 -26 -56 -26 -163 1 -214 59
-116 204 -151 314 -76 l36 24 22 -29 c44 -61 48 -47 48 185 0 228 -2 236 -45
195 l-22 -21 -57 31 c-64 33 -116 38 -180 15z m148 -126 c43 -37 54 -81 32
-132 -48 -115 -206 -86 -206 38 0 55 14 87 48 108 43 26 86 21 126 -14z"/>
<path d="M930 245 l0 -215 55 0 55 0 0 215 0 215 -55 0 -55 0 0 -215z"/>
</g>
</svg>
